<svg width="888" height="266" viewBox="0 0 888 266" fill="none" xmlns="http://www.w3.org/2000/svg">
<g clip-path="url(#clip0_7_265)">
<path d="M220.724 112.326C225.522 105.641 228.351 97.4473 228.351 88.5894C228.351 72.2832 218.779 58.2175 204.948 51.6897C205.005 51.4427 205.061 51.1988 205.115 50.9472C204.198 28.6516 185.773 10.795 163.256 10.795C158.502 10.795 153.834 11.6143 149.437 13.1565C148.298 12.017 147.095 10.9378 145.833 9.92561C137.966 3.61591 128.073 0.141113 117.975 0.141113C100.033 0.141113 84.5319 10.8017 77.4766 26.1214C57.145 28.9847 41.4535 46.4968 41.4535 67.6065C41.4535 71.0045 41.8815 74.37 42.691 77.6308C38.9512 81.5397 36.6489 86.8362 36.6489 92.6731C36.6489 101.345 41.7232 108.827 49.0611 112.327H220.723V112.326H220.724Z" fill="#FBDC34"/>
<path d="M89.1478 77.8081C94.0972 77.8081 98.1094 73.7959 98.1094 68.8466C98.1094 63.8972 94.0972 59.885 89.1478 59.885C84.1985 59.885 80.1863 63.8972 80.1863 68.8466C80.1863 73.7959 84.1985 77.8081 89.1478 77.8081Z" fill="white"/>
<path d="M130.969 95.7315C135.918 95.7315 139.93 91.7192 139.93 86.7699C139.93 81.8206 135.918 77.8083 130.969 77.8083C126.019 77.8083 122.007 81.8206 122.007 86.7699C122.007 91.7192 126.019 95.7315 130.969 95.7315Z" fill="white"/>
<path d="M160.84 65.8592C165.79 65.8592 169.802 61.8469 169.802 56.8976C169.802 51.9483 165.79 47.936 160.84 47.936C155.891 47.936 151.879 51.9483 151.879 56.8976C151.879 61.8469 155.891 65.8592 160.84 65.8592Z" fill="white"/>
<path d="M46.0652 110.667L66.3581 264.141H201.555L221.848 110.667H46.0652Z" fill="#D80027"/>
<path d="M162.83 120.489H105.876V256.705H162.83V120.489Z" fill="#D80027"/>
<path d="M121.744 254.317L111.225 123.358L93.3599 124.793L103.763 254.317H121.744Z" fill="white"/>
<path d="M163.953 254.317L174.356 124.793L156.49 123.358L145.971 254.317H163.953Z" fill="white"/>
<path d="M48.3912 128.258H219.522L221.848 110.667H46.0652L48.3912 128.258Z" fill="#A2001D"/>
<path d="M63.9883 246.218L66.3581 264.141H201.555L203.925 246.218H63.9883Z" fill="#A2001D"/>
</g>
<path d="M381.152 101.781C381.152 108.226 380.111 114.704 378.027 121.215C376.009 127.725 373.145 133.812 369.434 139.476C365.788 145.14 361.393 150.186 356.25 154.613C351.107 159.04 345.475 162.393 339.355 164.672C339.746 170.075 340.202 175.446 340.723 180.785C341.243 186.123 341.96 191.495 342.871 196.898C343.066 197.875 343.262 198.884 343.457 199.926C343.717 200.967 343.848 202.041 343.848 203.148C343.848 204.841 343.424 205.98 342.578 206.566C341.732 207.152 340.527 207.445 338.965 207.445C337.858 207.445 336.523 207.315 334.961 207.054C333.398 206.794 332.064 206.403 330.957 205.883C329.655 205.166 328.776 204.45 328.32 203.734C327.93 202.953 327.637 201.911 327.441 200.609C326.335 195.075 325.651 189.541 325.391 184.008C325.195 178.474 324.902 172.94 324.512 167.406C323.21 167.276 322.135 166.95 321.289 166.429C320.443 165.844 320.02 164.867 320.02 163.5C320.02 162.198 320.378 160.83 321.094 159.398C321.875 157.966 322.754 156.859 323.73 156.078C323.145 143.969 322.884 131.957 322.949 120.043C323.079 108.129 323.079 96.1169 322.949 84.0076C322.624 84.1378 322.331 84.2354 322.07 84.3005C321.81 84.3656 321.517 84.3982 321.191 84.3982C320.475 84.3982 319.889 84.2354 319.434 83.9099C318.978 83.5193 318.587 83.0636 318.262 82.5427C318.001 82.0219 317.806 81.4685 317.676 80.8826C317.546 80.2315 317.48 79.6456 317.48 79.1248C317.48 77.1716 317.969 75.7719 318.945 74.9255C319.922 74.0141 321.257 73.2003 322.949 72.4841C322.949 71.768 322.949 70.9542 322.949 70.0427C323.014 69.0662 323.145 68.1873 323.34 67.406C323.6 66.5597 323.991 65.8761 324.512 65.3552C325.033 64.7693 325.814 64.4763 326.855 64.4763C328.548 64.4763 330.176 64.8018 331.738 65.4529C333.301 66.1039 334.473 67.2107 335.254 68.7732C337.533 68.3826 339.746 68.0245 341.895 67.699C344.043 67.3735 346.257 67.2107 348.535 67.2107C353.678 67.2107 358.268 68.0896 362.305 69.8474C366.341 71.5401 369.759 73.949 372.559 77.074C375.358 80.1339 377.474 83.7797 378.906 88.0115C380.404 92.2432 381.152 96.8331 381.152 101.781ZM366.504 100.023C366.504 97.0284 366.113 94.2289 365.332 91.6248C364.551 88.9555 363.379 86.6768 361.816 84.7888C360.254 82.8357 358.268 81.3057 355.859 80.199C353.451 79.0922 350.618 78.5388 347.363 78.5388C345.605 78.5388 343.815 78.669 341.992 78.9294C340.234 79.1899 338.509 79.5805 336.816 80.1013C336.816 92.0154 336.882 103.832 337.012 115.551C337.207 127.269 337.663 139.021 338.379 150.804C342.546 148.656 346.354 145.661 349.805 141.82C353.255 137.979 356.217 133.747 358.691 129.125C361.165 124.437 363.086 119.587 364.453 114.574C365.82 109.496 366.504 104.646 366.504 100.023ZM460.582 192.797C460.582 194.685 460.094 196.475 459.117 198.168C458.141 199.795 456.806 201 455.113 201.781C454.592 202.041 453.323 202.302 451.305 202.562C449.286 202.758 447.105 202.953 444.762 203.148C442.418 203.344 440.172 203.539 438.023 203.734C435.94 203.929 434.475 204.06 433.629 204.125C433.434 205.232 432.913 206.013 432.066 206.469C431.22 206.859 430.309 207.054 429.332 207.054C428.225 207.054 426.956 206.892 425.523 206.566C424.091 206.241 422.822 205.883 421.715 205.492C418.785 205.883 415.823 206.306 412.828 206.761C409.833 207.217 406.806 207.445 403.746 207.445C401.402 207.445 400.23 206.338 400.23 204.125C400.23 201.911 400.849 200.219 402.086 199.047C403.323 197.875 404.82 196.996 406.578 196.41C408.336 195.824 410.224 195.433 412.242 195.238C414.26 195.043 416.051 194.815 417.613 194.554C417.288 176.065 416.93 157.705 416.539 139.476C416.214 121.247 416.051 102.888 416.051 84.3982C413.382 84.5935 410.777 84.7888 408.238 84.9841C405.699 85.1143 403.16 85.1794 400.621 85.1794C400.1 85.1794 399.547 85.1794 398.961 85.1794C398.375 85.1143 397.822 85.0167 397.301 84.8865C396.845 84.6912 396.454 84.4307 396.129 84.1052C395.738 83.7146 395.543 83.1612 395.543 82.4451C395.543 81.2081 395.803 80.1339 396.324 79.2224C396.845 78.2458 397.529 77.4646 398.375 76.8787C399.286 76.2276 400.263 75.7068 401.305 75.3162C402.346 74.9255 403.421 74.6326 404.527 74.4373C407.327 73.9164 410.159 73.4932 413.023 73.1677C415.953 72.7771 418.85 72.419 421.715 72.0935C424.645 71.7029 427.542 71.3123 430.406 70.9216C433.336 70.531 436.233 70.0102 439.098 69.3591C441.832 68.7732 444.566 68.0245 447.301 67.113C450.035 66.1365 452.835 65.6482 455.699 65.6482C457.262 65.6482 458.303 66.2341 458.824 67.406C459.345 68.5128 459.605 69.7498 459.605 71.1169C459.605 72.2237 459.475 73.2979 459.215 74.3396C459.02 75.3162 458.564 76.2602 457.848 77.1716C457.457 77.6925 456.578 78.2133 455.211 78.7341C453.909 79.1899 452.314 79.613 450.426 80.0037C448.603 80.3943 446.617 80.7849 444.469 81.1755C442.385 81.5011 440.335 81.8266 438.316 82.1521C436.363 82.4125 434.573 82.6404 432.945 82.8357C431.318 83.031 430.113 83.1612 429.332 83.2263C430.048 92.2758 430.536 101.325 430.797 110.375C431.122 119.424 431.383 128.474 431.578 137.523C431.773 146.573 431.969 155.622 432.164 164.672C432.359 173.721 432.717 182.771 433.238 191.82C436.949 191.234 440.693 190.681 444.469 190.16C448.245 189.574 452.053 189.281 455.895 189.281C457.001 189.281 458.043 189.541 459.02 190.062C460.061 190.518 460.582 191.429 460.582 192.797ZM538.547 209.789C538.547 210.57 538.319 211.189 537.863 211.644C537.473 212.1 536.984 212.426 536.398 212.621C535.812 212.816 535.161 212.946 534.445 213.011C533.729 213.077 533.078 213.109 532.492 213.109C530.93 213.109 529.595 213.077 528.488 213.011C527.382 213.011 526.405 212.816 525.559 212.426C524.712 212.035 523.964 211.416 523.312 210.57C522.661 209.789 522.01 208.617 521.359 207.054C518.69 201.26 516.346 195.336 514.328 189.281C512.375 183.161 510.357 177.041 508.273 170.922C506.581 175.349 504.79 179.711 502.902 184.008C501.014 188.304 499.094 192.601 497.141 196.898C496.229 198.851 495.383 200.837 494.602 202.855C493.82 204.808 492.844 206.729 491.672 208.617C491.086 209.528 490.5 210.245 489.914 210.765C489.393 211.286 488.547 211.547 487.375 211.547C486.529 211.547 485.552 211.319 484.445 210.863C483.339 210.407 482.264 209.789 481.223 209.008C480.246 208.291 479.4 207.478 478.684 206.566C477.967 205.59 477.609 204.646 477.609 203.734C477.609 203.344 477.935 202.334 478.586 200.707C479.237 199.079 480.083 197.159 481.125 194.945C482.167 192.666 483.273 190.225 484.445 187.621C485.682 184.952 486.854 182.413 487.961 180.004C489.133 177.595 490.142 175.446 490.988 173.558C491.9 171.605 492.518 170.205 492.844 169.359C494.406 165.713 495.773 162.067 496.945 158.422C498.182 154.711 499.354 151 500.461 147.289C500.07 146.117 499.452 144.229 498.605 141.625C497.759 139.021 496.75 136.026 495.578 132.64C494.406 129.19 493.137 125.479 491.77 121.508C490.402 117.536 489.035 113.532 487.668 109.496C486.301 105.394 484.966 101.455 483.664 97.6794C482.362 93.8383 481.223 90.3878 480.246 87.3279C479.27 84.268 478.488 81.7289 477.902 79.7107C477.316 77.6925 477.023 76.4555 477.023 75.9998C477.023 75.4138 477.186 74.9581 477.512 74.6326C477.902 74.307 478.358 74.0466 478.879 73.8513C479.4 73.656 479.921 73.5583 480.441 73.5583C481.027 73.4932 481.516 73.4607 481.906 73.4607C484.641 73.4607 486.757 74.0466 488.254 75.2185C489.816 76.3904 491.151 78.1482 492.258 80.4919C495.188 87.0024 497.792 93.643 500.07 100.414C502.349 107.185 504.628 113.955 506.906 120.726C508.078 114.932 509.217 109.17 510.324 103.441C511.496 97.712 512.57 91.9503 513.547 86.156C513.807 84.919 514.068 83.3565 514.328 81.4685C514.589 79.5805 514.849 77.6274 515.109 75.6091C515.435 73.5909 515.76 71.7029 516.086 69.9451C516.477 68.1222 516.932 66.6899 517.453 65.6482C517.779 64.932 518.104 64.4438 518.43 64.1833C518.82 63.8578 519.471 63.6951 520.383 63.6951C521.424 63.6951 522.499 63.8904 523.605 64.281C524.712 64.6716 525.689 65.225 526.535 65.9412C527.447 66.6573 528.163 67.5037 528.684 68.4802C529.27 69.4568 529.562 70.531 529.562 71.7029C529.562 76.3253 529.074 80.8826 528.098 85.3748C527.121 89.8669 526.242 94.4242 525.461 99.0466C523.964 107.185 522.531 115.323 521.164 123.461C519.797 131.534 518.039 139.541 515.891 147.484C519.016 156.924 522.206 166.267 525.461 175.511C528.716 184.756 532.297 193.903 536.203 202.953C536.724 204.06 537.245 205.166 537.766 206.273C538.286 207.315 538.547 208.487 538.547 209.789ZM619.637 176C619.637 180.817 618.855 185.375 617.293 189.672C615.73 193.969 613.484 197.745 610.555 201C607.69 204.19 604.207 206.729 600.105 208.617C596.004 210.57 591.447 211.547 586.434 211.547C582.007 211.547 577.905 210.83 574.129 209.398C570.418 208.031 567.195 206.078 564.461 203.539C561.727 201 559.578 197.907 558.016 194.261C556.518 190.616 555.77 186.547 555.77 182.054C555.77 181.143 555.802 180.004 555.867 178.636C555.932 177.269 556.128 175.967 556.453 174.73C556.844 173.428 557.365 172.354 558.016 171.508C558.732 170.596 559.741 170.14 561.043 170.14C562.085 170.14 563.224 170.368 564.461 170.824C565.763 171.215 566.967 171.768 568.074 172.484C569.181 173.2 570.092 174.079 570.809 175.121C571.59 176.097 571.98 177.172 571.98 178.344V184.008C571.98 188.5 573.185 192.178 575.594 195.043C578.068 197.842 581.616 199.242 586.238 199.242C589.493 199.242 592.293 198.493 594.637 196.996C596.98 195.498 598.868 193.578 600.301 191.234C601.798 188.89 602.872 186.286 603.523 183.422C604.24 180.492 604.598 177.627 604.598 174.828C604.598 169.359 603.458 164.053 601.18 158.91C598.966 153.767 596.167 148.754 592.781 143.871C589.396 138.923 585.717 134.073 581.746 129.32C577.775 124.567 574.096 119.847 570.711 115.16C567.326 110.472 564.493 105.785 562.215 101.097C560.001 96.4099 558.895 91.6248 558.895 86.7419C558.895 82.7706 559.676 79.3526 561.238 76.488C562.866 73.5583 564.982 71.182 567.586 69.3591C570.255 67.4711 573.25 66.1039 576.57 65.2576C579.956 64.3461 583.439 63.8904 587.02 63.8904C591.382 63.8904 595.288 64.5089 598.738 65.7458C602.189 66.9828 605.118 68.7732 607.527 71.1169C609.936 73.4607 611.759 76.3578 612.996 79.8083C614.298 83.1938 614.949 87.0675 614.949 91.4294C614.949 92.0805 614.917 92.8943 614.852 93.8708C614.786 94.8474 614.624 95.824 614.363 96.8005C614.103 97.712 613.712 98.5258 613.191 99.2419C612.671 99.893 611.954 100.219 611.043 100.219C609.741 100.219 608.439 99.893 607.137 99.2419C606.03 98.656 605.118 98.1026 604.402 97.5818C603.751 96.9958 603.23 96.3774 602.84 95.7263C602.449 95.0102 602.156 94.2289 601.961 93.3826C601.766 92.5362 601.603 91.4945 601.473 90.2576C601.147 87.9138 600.724 85.7979 600.203 83.9099C599.682 82.0219 598.901 80.4268 597.859 79.1248C596.818 77.8227 595.451 76.8136 593.758 76.0974C592.065 75.3813 589.884 75.0232 587.215 75.0232C585.327 75.0232 583.504 75.2185 581.746 75.6091C580.053 75.9998 578.556 76.6508 577.254 77.5623C576.017 78.4737 575.008 79.6781 574.227 81.1755C573.51 82.6078 573.152 84.3982 573.152 86.5466C573.152 89.5414 573.803 92.6013 575.105 95.7263C576.473 98.8513 578.23 102.041 580.379 105.297C582.592 108.552 585.066 111.905 587.801 115.355C590.6 118.741 593.465 122.256 596.395 125.902C599.324 129.548 602.156 133.324 604.891 137.23C607.69 141.071 610.164 145.075 612.312 149.242C614.526 153.409 616.284 157.738 617.586 162.23C618.953 166.657 619.637 171.247 619.637 176ZM705.512 72.4841C705.512 74.8279 704.828 76.7485 703.461 78.2458C702.159 79.7432 700.368 80.7524 698.09 81.2732C694.444 82.0544 690.701 82.4776 686.859 82.5427C683.083 82.5427 679.34 82.6404 675.629 82.8357V102.172C675.629 118.578 676.117 134.952 677.094 151.293C678.135 167.569 679.796 183.877 682.074 200.219C682.27 201.195 682.465 202.172 682.66 203.148C682.921 204.125 683.051 205.101 683.051 206.078C683.051 207.64 682.628 208.78 681.781 209.496C681 210.212 679.861 210.57 678.363 210.57C677.191 210.57 675.727 210.407 673.969 210.082C672.276 209.821 670.941 209.398 669.965 208.812C668.663 208.031 667.816 207.25 667.426 206.469C667.1 205.622 666.84 204.515 666.645 203.148C665.928 198.526 665.44 193.903 665.18 189.281C664.919 184.659 664.626 180.036 664.301 175.414C663.52 165.518 662.868 155.655 662.348 145.824C661.827 135.993 661.566 126.13 661.566 116.234C661.566 110.83 661.599 105.459 661.664 100.121C661.729 94.7823 661.762 89.3461 661.762 83.8123C657.725 84.2029 653.656 84.5935 649.555 84.9841C645.518 85.3748 641.449 85.5701 637.348 85.5701C636.371 85.5701 635.59 85.3422 635.004 84.8865C634.353 84.3656 634.027 83.6169 634.027 82.6404C634.027 80.3617 634.776 78.6039 636.273 77.3669C637.771 76.0649 639.561 75.1534 641.645 74.6326C644.965 73.9164 648.35 73.4607 651.801 73.2654C655.251 73.005 658.702 72.6794 662.152 72.2888C662.152 71.6378 662.185 71.0193 662.25 70.4333C662.315 69.7823 662.445 69.2289 662.641 68.7732C662.901 68.2524 663.259 67.8292 663.715 67.5037C664.171 67.1781 664.822 67.0154 665.668 67.0154C667.23 67.0154 668.826 67.3735 670.453 68.0896C672.081 68.8057 673.35 69.8149 674.262 71.1169L690.473 69.3591C692.035 69.1638 693.598 68.9685 695.16 68.7732C696.723 68.5128 698.285 68.3826 699.848 68.3826C700.564 68.3826 701.247 68.4151 701.898 68.4802C702.615 68.5453 703.233 68.7406 703.754 69.0662C704.275 69.3266 704.698 69.7498 705.023 70.3357C705.349 70.8565 705.512 71.5727 705.512 72.4841ZM791.875 185.57C791.875 186.677 791.419 187.751 790.508 188.793C789.661 189.834 788.62 190.844 787.383 191.82C786.146 192.797 784.876 193.708 783.574 194.554C782.272 195.336 781.198 195.987 780.352 196.508C778.138 197.94 775.924 199.274 773.711 200.511C771.562 201.748 769.316 202.823 766.973 203.734C764.694 204.646 762.318 205.362 759.844 205.883C757.435 206.403 754.896 206.664 752.227 206.664L750.664 206.859C748.516 206.859 746.367 206.631 744.219 206.176C742.135 205.655 740.182 204.906 738.359 203.929C736.536 202.888 734.909 201.586 733.477 200.023C732.044 198.461 730.938 196.573 730.156 194.359C729.57 192.601 729.115 190.518 728.789 188.109C728.464 185.7 728.203 183.194 728.008 180.59C727.878 177.985 727.747 175.446 727.617 172.972C727.552 170.433 727.487 168.187 727.422 166.234C726.445 146.312 725.664 126.39 725.078 106.469C724.948 104.19 724.85 101.911 724.785 99.6326C724.72 97.3539 724.688 95.0753 724.688 92.7966C724.688 88.8904 724.915 85.5701 725.371 82.8357C725.827 80.1013 726.738 77.8552 728.105 76.0974C729.473 74.3396 731.426 73.0701 733.965 72.2888C736.569 71.5076 739.987 71.1169 744.219 71.1169C748.451 71.1169 752.682 71.1495 756.914 71.2146C761.211 71.2797 765.508 71.3123 769.805 71.3123C771.107 71.3123 772.409 71.2797 773.711 71.2146C775.013 71.0844 776.315 71.182 777.617 71.5076C778.398 71.6378 779.082 71.8656 779.668 72.1912C780.254 72.4516 780.547 73.0701 780.547 74.0466C780.547 76.3904 779.766 78.1482 778.203 79.3201C776.641 80.4268 774.785 81.1755 772.637 81.5662C770.488 81.9568 768.242 82.1521 765.898 82.1521C763.62 82.087 761.732 82.0544 760.234 82.0544H747.539C746.237 82.0544 744.935 82.0544 743.633 82.0544C742.331 82.0544 741.029 82.1195 739.727 82.2498C739.336 83.2263 739.076 84.2354 738.945 85.2771C738.815 86.3188 738.75 87.393 738.75 88.4998C738.75 95.5961 738.913 102.595 739.238 109.496C739.629 116.397 739.987 123.396 740.312 130.492C744.349 130.166 748.353 129.776 752.324 129.32C756.296 128.864 760.299 128.344 764.336 127.758C764.922 127.758 765.443 127.725 765.898 127.66C766.419 127.595 766.94 127.562 767.461 127.562C768.828 127.562 769.772 127.92 770.293 128.636C770.879 129.353 771.172 130.362 771.172 131.664C771.172 132.575 771.107 133.422 770.977 134.203C770.911 134.984 770.716 135.765 770.391 136.547C769.935 137.849 769.186 138.793 768.145 139.379C767.103 139.965 765.931 140.388 764.629 140.648C763.327 140.844 761.96 140.941 760.527 140.941C759.16 140.941 757.956 140.974 756.914 141.039C754.18 141.169 751.478 141.267 748.809 141.332C746.204 141.397 743.568 141.495 740.898 141.625C740.964 142.992 741.061 145.043 741.191 147.777C741.322 150.511 741.452 153.604 741.582 157.054C741.777 160.44 741.973 163.955 742.168 167.601C742.428 171.247 742.689 174.698 742.949 177.953C743.21 181.143 743.503 183.942 743.828 186.351C744.154 188.76 744.479 190.388 744.805 191.234C745.521 192.601 746.335 193.513 747.246 193.969C748.158 194.359 749.362 194.554 750.859 194.554C753.268 194.554 755.807 194.099 758.477 193.187C761.146 192.211 763.75 191.006 766.289 189.574C768.828 188.077 771.237 186.449 773.516 184.691C775.859 182.933 777.878 181.208 779.57 179.515C780.286 178.929 781.003 178.344 781.719 177.758C782.435 177.107 783.281 176.781 784.258 176.781C785.234 176.781 786.178 177.074 787.09 177.66C788.001 178.246 788.815 178.995 789.531 179.906C790.247 180.752 790.801 181.696 791.191 182.738C791.647 183.78 791.875 184.724 791.875 185.57ZM887.32 206.469C887.32 207.25 886.93 207.901 886.148 208.422C885.367 208.942 884.423 209.366 883.316 209.691C882.275 210.017 881.201 210.245 880.094 210.375C879.052 210.505 878.271 210.57 877.75 210.57C876.448 210.57 875.374 210.44 874.527 210.179C873.746 209.984 872.802 209.594 871.695 209.008C871.37 208.812 870.589 207.998 869.352 206.566C868.18 205.069 866.682 203.148 864.859 200.804C863.102 198.461 861.083 195.791 858.805 192.797C856.591 189.802 854.28 186.742 851.871 183.617C849.527 180.427 847.184 177.269 844.84 174.144C842.561 170.954 840.445 168.057 838.492 165.453C836.539 162.784 834.846 160.472 833.414 158.519C832.047 156.501 831.07 155.101 830.484 154.32L829.898 154.515C830.289 162.263 830.777 170.01 831.363 177.758C832.014 185.44 833.089 193.057 834.586 200.609C834.781 201.39 834.977 202.204 835.172 203.051C835.432 203.897 835.562 204.776 835.562 205.687C835.562 207.185 835.074 208.129 834.098 208.519C833.121 208.975 832.047 209.203 830.875 209.203C830.224 209.203 829.443 209.17 828.531 209.105C827.62 209.04 826.676 208.91 825.699 208.715C824.723 208.519 823.811 208.259 822.965 207.933C822.184 207.673 821.565 207.315 821.109 206.859C820.198 206.078 819.612 205.264 819.352 204.418C819.156 203.571 818.961 202.562 818.766 201.39C816.878 188.304 815.673 175.186 815.152 162.035C814.697 148.819 814.469 135.635 814.469 122.484C814.469 116.755 814.501 111.123 814.566 105.59C814.632 100.056 814.729 94.4242 814.859 88.6951C814.078 88.63 813.329 88.3695 812.613 87.9138C811.962 87.4581 811.376 86.9047 810.855 86.2537C810.335 85.5375 809.911 84.8214 809.586 84.1052C809.326 83.324 809.195 82.5753 809.195 81.8591C809.195 81.143 809.358 80.4268 809.684 79.7107C810.074 78.9945 810.53 78.3435 811.051 77.7576C811.637 77.1716 812.255 76.6182 812.906 76.0974C813.557 75.5766 814.143 75.1534 814.664 74.8279V73.0701C814.664 72.419 814.664 71.6703 814.664 70.824C814.729 69.9776 814.859 69.1964 815.055 68.4802C815.315 67.699 815.706 67.0805 816.227 66.6248C816.747 66.1039 817.529 65.8435 818.57 65.8435C819.938 65.8435 821.305 66.0714 822.672 66.5271C824.039 66.9828 825.211 67.7966 826.188 68.9685C831.07 67.0154 836.214 66.0388 841.617 66.0388C846.37 66.0388 850.699 66.9828 854.605 68.8708C858.512 70.7589 861.832 73.2979 864.566 76.488C867.366 79.6781 869.514 83.3565 871.012 87.5232C872.509 91.6899 873.258 96.0518 873.258 100.609C873.258 105.492 872.346 110.245 870.523 114.867C868.701 119.424 866.324 123.754 863.395 127.855C860.465 131.957 857.112 135.733 853.336 139.183C849.625 142.569 845.849 145.531 842.008 148.07C848.128 156.208 854.312 164.281 860.562 172.289C866.878 180.232 873.323 188.174 879.898 196.117C880.289 196.573 880.875 197.256 881.656 198.168C882.503 199.079 883.349 200.088 884.195 201.195C885.042 202.237 885.758 203.246 886.344 204.222C886.995 205.199 887.32 205.948 887.32 206.469ZM858.805 99.0466C858.805 96.6378 858.382 94.1313 857.535 91.5271C856.689 88.9229 855.484 86.5792 853.922 84.4958C852.359 82.3474 850.471 80.5896 848.258 79.2224C846.109 77.8552 843.701 77.1716 841.031 77.1716C838.883 77.1716 836.734 77.4972 834.586 78.1482C832.503 78.7341 830.484 79.5154 828.531 80.4919C828.661 90.1925 828.759 99.893 828.824 109.594C828.954 119.294 829.117 128.995 829.312 138.695L831.07 138.89C834.456 137.002 837.776 134.626 841.031 131.761C844.352 128.897 847.314 125.707 849.918 122.191C852.587 118.676 854.736 114.965 856.363 111.058C857.991 107.087 858.805 103.083 858.805 99.0466Z" fill="#F7D5D5"/>
<defs>
<clipPath id="clip0_7_265">
<rect width="264" height="264" fill="white" transform="translate(0.5 0.141113)"/>
</clipPath>
</defs>
</svg>
